<?xml version="1.0" encoding="UTF-8"?>
<svg version="1.1" xmlns="http://www.w3.org/2000/svg" width="500" height="500">
<path d="M0 0 C36.3 0 72.6 0 110 0 C111.26760846 2.53521691 111.04147569 4.14463739 110.9140625 6.97265625 C110.87023437 7.95427734 110.82640625 8.93589844 110.78125 9.94726562 C110.70390625 11.48930664 110.70390625 11.48930664 110.625 13.0625 C110.58117187 14.09439453 110.53734375 15.12628906 110.4921875 16.18945312 C110.12854231 23.87145769 110.12854231 23.87145769 109 25 C106.17743509 25.10007008 103.3847681 25.13875598 100.5625 25.125 C99.77294922 25.12886719 98.98339844 25.13273437 98.16992188 25.13671875 C92.25326133 25.12663067 92.25326133 25.12663067 90 24 C90.33 45.12 90.66 66.24 91 88 C92.32 86.68 93.64 85.36 95 84 C95.66 84 96.32 84 97 84 C96.67 83.01 96.34 82.02 96 81 C95.34 80.67 94.68 80.34 94 80 C92 79 92 79 91 76 C90.93197033 74.27204648 90.91504355 72.54164635 90.9375 70.8125 C90.94652344 69.91144531 90.95554687 69.01039063 90.96484375 68.08203125 C90.97644531 67.39496094 90.98804688 66.70789063 91 66 C91.99 66 92.98 66 94 66 C94.061875 65.38125 94.12375 64.7625 94.1875 64.125 C95 62 95 62 96.9375 60.625 C102.06072212 59.57944447 107.32344522 60.23347384 111.7578125 63.16015625 C114.50678654 65.97981819 115.37181357 68.76470358 115.625 72.5625 C115.42379467 76.17809886 115.01868503 76.97575997 112.6875 80 C110 82 110 82 107 83 C107.63228516 83.71349609 107.63228516 83.71349609 108.27734375 84.44140625 C112.29815441 89.57858316 113.28275171 93.01215869 113.25 99.5625 C113.29261957 105.09753368 113.29261957 105.09753368 116.26953125 109.53125 C119.00055289 111.58820859 119.00055289 111.58820859 121.84765625 113.19140625 C124 115 124 115 124.43359375 118.08984375 C124 121 124 121 122 123 C116.66666667 123.33333333 116.66666667 123.33333333 114 122 C114 126.95 114 131.9 114 137 C114.99 137.33 115.98 137.66 117 138 C117 138.66 117 139.32 117 140 C117.66 140 118.32 140 119 140 C121.43160605 143.36683915 122 144.73350364 122 149 C136.19 148.67 150.38 148.34 165 148 C165.86702486 143.66487571 166.3898381 140.36618674 166 136 C165.33613281 135.31679688 164.67226563 134.63359375 163.98828125 133.9296875 C161.04393149 129.59125465 161.6409302 125.73197745 161.875 120.625 C162.11464912 114.28761214 162.13844138 109.01747459 160 103 C159.34 103 158.68 103 158 103 C158.1875 101.1875 158.1875 101.1875 159 99 C161.25 97.1875 161.25 97.1875 164 96 C166.8125 96.3125 166.8125 96.3125 169 97 C169 96.34 169 95.68 169 95 C169.556875 94.484375 170.11375 93.96875 170.6875 93.4375 C174.86649877 89.0326094 177.32101084 83.40713408 180 78 C180.66 78 181.32 78 182 78 C182 77.01 182 76.02 182 75 C182.66 75 183.32 75 184 75 C184.3403125 74.071875 184.3403125 74.071875 184.6875 73.125 C186.43000562 70.30380043 187.87114931 69.99995266 191 69 C193.65563965 68.74603271 193.65563965 68.74603271 196.53710938 68.74121094 C198.16404724 68.73175446 198.16404724 68.73175446 199.82385254 68.72210693 C200.9854187 68.7261554 202.14698486 68.73020386 203.34375 68.734375 C204.54559937 68.73246155 205.74744873 68.7305481 206.98571777 68.72857666 C209.52417205 68.72721699 212.06263334 68.73089816 214.60107422 68.73925781 C218.48551052 68.74996008 222.36948433 68.73935477 226.25390625 68.7265625 C228.72135519 68.72788413 231.18880384 68.7304466 233.65625 68.734375 C235.39859924 68.72830231 235.39859924 68.72830231 237.17614746 68.72210693 C238.26077271 68.72841125 239.34539795 68.73471558 240.46289062 68.74121094 C241.41377563 68.74280212 242.36466064 68.74439331 243.34436035 68.74603271 C246.93001345 69.08894015 249.88540998 69.93411957 252.51953125 72.453125 C256.53730798 78.03674221 259.92372775 83.92217386 263.265625 89.92578125 C264.96895103 93.03389513 264.96895103 93.03389513 267 96 C269.33247761 96.33926947 271.66585471 96.67240066 274 97 C275.9375 98.5625 275.9375 98.5625 277 100 C275.92598892 102.91517292 275.22189824 104.77810176 273 107 C272.75480301 109.58982882 272.75480301 109.58982882 272.875 112.59375 C272.89046875 113.70621094 272.9059375 114.81867188 272.921875 115.96484375 C272.94765625 117.13144531 272.9734375 118.29804688 273 119.5 C273.05087068 121.80189834 273.09298742 124.10401218 273.125 126.40625 C273.14820313 127.43041016 273.17140625 128.45457031 273.1953125 129.50976562 C273 132 273 132 271 134 C270.69940057 136.36509361 270.50484988 138.74441881 270.375 141.125 C270.26285156 143.04699219 270.26285156 143.04699219 270.1484375 145.0078125 C270.09945313 145.99523437 270.05046875 146.98265625 270 148 C271.0725 148.0825 272.145 148.165 273.25 148.25 C277.2712975 149.0542595 278.70098139 149.64726453 281 153 C280.59375 155.13671875 280.59375 155.13671875 280 157 C244.34667806 157.02286519 208.6933574 157.04049762 173.04002965 157.05106533 C168.83536155 157.05231611 164.63069347 157.05361042 160.42602539 157.05493164 C159.17036065 157.05532511 159.17036065 157.05532511 157.88932895 157.05572652 C144.31676324 157.06008346 130.74420176 157.06797114 117.17163856 157.0771528 C103.25553128 157.08648868 89.33942622 157.09205547 75.42331594 157.09408849 C66.82926978 157.09546386 58.23523552 157.09981517 49.64119302 157.10791647 C43.75611396 157.11318312 37.87104109 157.11480448 31.98595984 157.11350138 C28.58540532 157.11285787 25.18487168 157.11387694 21.78432083 157.11920547 C18.10624262 157.12413514 14.42821659 157.12300098 10.75013733 157.12025452 C9.12030831 157.12462378 9.12030831 157.12462378 7.45755345 157.12908131 C6.48021164 157.12709026 5.50286983 157.12509921 4.4959116 157.12304783 C3.22062087 157.12361741 3.22062087 157.12361741 1.91956669 157.1241985 C0 157 0 157 -1 156 C-1.08713831 154.29227642 -1.10700007 152.58101351 -1.09765625 150.87109375 C-1.09443359 149.83662109 -1.09121094 148.80214844 -1.08789062 147.73632812 C-1.07532227 146.1034082 -1.07532227 146.1034082 -1.0625 144.4375 C-1.05798828 143.34501953 -1.05347656 142.25253906 -1.04882812 141.12695312 C-1.03699826 138.41791505 -1.02051543 135.70898401 -1 133 C2 132 2 132 12 132 C12 97.02 12 62.04 12 26 C9.06753341 24.5337667 6.32233257 25.02912611 3.09375 25.16015625 C1 25 1 25 -1 23 C-1.17316528 20.02684016 -1.23190475 17.15794428 -1.1875 14.1875 C-1.18685547 13.37990234 -1.18621094 12.57230469 -1.18554688 11.74023438 C-1.15486938 7.57832137 -0.82945813 4.14729063 0 0 Z M26 33 C22.49918669 37.77680446 23.47312222 44.58350828 23.40966797 50.27172852 C23.38657827 51.71418419 23.34558814 53.15646555 23.28662109 54.59790039 C22.75073642 62.66228715 22.75073642 62.66228715 25.30883789 70.07104492 C31.2866613 74.60414043 39.58734353 73.61631876 46.6875 73.4375 C47.97333984 73.43169922 49.25917969 73.42589844 50.58398438 73.41992188 C62.95623877 73.40302241 62.95623877 73.40302241 75 71 C79.39843994 64.79715555 78.24271928 54.58365077 78.3125 47.3125 C78.34150391 46.29349609 78.37050781 45.27449219 78.40039062 44.22460938 C78.46314846 38.26099905 78.46314846 38.26099905 76.16796875 32.85546875 C71.97392543 29.26597222 67.37244926 29.82326548 62.1328125 29.796875 C60.82520462 29.78832489 60.82520462 29.78832489 59.49118042 29.77960205 C57.64696464 29.77015817 55.80273203 29.7636205 53.95849609 29.75976562 C51.14260314 29.75006067 48.32744041 29.71903214 45.51171875 29.6875 C43.71875433 29.68096957 41.92578469 29.67571925 40.1328125 29.671875 C39.29307892 29.6595282 38.45334534 29.6471814 37.58816528 29.63446045 C32.93005902 29.65213872 29.71610276 29.87130117 26 33 Z M189 80 C187.20554296 82.5876183 185.61399034 85.29681372 184 88 C183.60039062 88.66257812 183.20078125 89.32515625 182.7890625 90.0078125 C180.69620553 93.28086065 180.69620553 93.28086065 180 97 C205.41 97 230.82 97 257 97 C256.01 95.35 255.02 93.7 254 92 C253.05346217 90.09947129 252.15210226 88.18335532 251.2578125 86.2578125 C250.84273438 85.51273438 250.42765625 84.76765625 250 84 C249.60621155 83.14662048 249.60621155 83.14662048 249.20446777 82.27600098 C247.9938998 80.09040798 246.91320393 78.62217026 245 77 C241.01400241 75.974903 237.1186254 76.11360162 233.0234375 76.2109375 C231.86123688 76.21372711 230.69903625 76.21651672 229.50161743 76.21939087 C227.04878862 76.23213974 224.59599747 76.26178476 222.14355469 76.30712891 C218.38145133 76.37488381 214.62203369 76.38912231 210.859375 76.39453125 C208.47653542 76.41352958 206.09371769 76.43556127 203.7109375 76.4609375 C202.58279633 76.46741302 201.45465515 76.47388855 200.29232788 76.4805603 C199.24759308 76.50292755 198.20285828 76.5252948 197.12646484 76.54833984 C196.2066684 76.56279144 195.28687195 76.57724304 194.33920288 76.59213257 C191.56605628 77.07566317 190.72480113 77.82722359 189 80 Z M29 88 C28.67 88.99 28.34 89.98 28 91 C32.16404764 92.16661952 36.1898068 92.12576063 40.484375 92.09765625 C41.29996887 92.0962413 42.11556274 92.09482635 42.95587158 92.09336853 C45.55395212 92.08778303 48.15194563 92.07523321 50.75 92.0625 C52.51432167 92.05748312 54.27864469 92.05292054 56.04296875 92.04882812 C60.36201256 92.03781835 64.68099154 92.02056369 69 92 C68.2981424 89.1490712 68.2981424 89.1490712 67 88 C64.1883662 87.91138008 61.40141745 87.88477645 58.58984375 87.90234375 C57.32679161 87.90446617 57.32679161 87.90446617 56.03822327 87.90663147 C53.33794665 87.91224737 50.63775172 87.92480252 47.9375 87.9375 C46.11132932 87.94251295 44.28515734 87.94707621 42.45898438 87.95117188 C37.97262458 87.96222196 33.48632616 87.97949721 29 88 Z M176 113 C176 113.66 176 114.32 176 115 C175.34 115 174.68 115 174 115 C173.5818444 120.04878218 173.5818444 120.04878218 175.6875 124.5 C177.89915209 126.24368556 177.89915209 126.24368556 180.5625 125.9375 C183.85417271 124.67156851 183.85417271 124.67156851 186 122 C186.58333333 118.5 186.58333333 118.5 186 115 C184.30835778 112.95970404 184.30835778 112.95970404 182 112 C178.94729537 111.84188612 178.94729537 111.84188612 176 113 Z M250 115 C249.16600125 117.91318914 249.16600125 117.91318914 250 121 C252.10501871 124.02230702 252.10501871 124.02230702 255 126 C258.11189674 125.90847363 259.34674377 124.76883749 262 123 C263.17797389 120.18444653 263.17797389 120.18444653 263 117 C260.8744845 114.04089856 260.8744845 114.04089856 258 112 C254.3139451 112 252.85074644 112.68858396 250 115 Z M194 117 C194 119.64 194 122.28 194 125 C209.84 125 225.68 125 242 125 C242 122.36 242 119.72 242 117 C226.16 117 210.32 117 194 117 Z M184 136 C183.67 140.29 183.34 144.58 183 149 C206.1 149 229.2 149 253 149 C253 144.71 253 140.42 253 136 C230.23 136 207.46 136 184 136 Z " fill="#131313" transform="translate(119,134)"/>
<path d="M0 0 C0.75522949 0.2367041 1.51045898 0.4734082 2.28857422 0.71728516 C21.59730222 6.92410097 40.11225514 16.36156808 56 29 C56.79011475 29.62310059 56.79011475 29.62310059 57.59619141 30.25878906 C96.45161265 61.14054551 121.29606439 105.58482873 127 155 C127.49343926 159.66832242 127.81938765 164.30955192 128 169 C128.07927734 170.64162109 128.07927734 170.64162109 128.16015625 172.31640625 C129.4197857 221.33242173 108.89591101 266.82989316 76.01171875 302.24609375 C64.33576465 314.5125601 50.72631585 324.67568393 36 333 C35.3719043 333.3604541 34.74380859 333.7209082 34.09667969 334.09228516 C-9.27444916 358.81109026 -59.46967056 362.59883839 -107.15332031 349.80566406 C-113.62927268 347.97284735 -119.82920324 345.67501738 -126 343 C-126.67401855 342.71431152 -127.34803711 342.42862305 -128.04248047 342.13427734 C-155.84722961 330.22347182 -181.92573601 310.22603144 -199.74853516 285.71191406 C-200.98919925 284.01477465 -202.26206314 282.34658578 -203.54296875 280.6796875 C-220.2911397 258.54390256 -230.00148686 232.12053581 -235 205 C-235.24492187 203.74445313 -235.48984375 202.48890625 -235.7421875 201.1953125 C-243.09478304 155.16605001 -230.82917011 106.5985439 -204.01660156 68.73925781 C-195.04820101 56.41948149 -184.98373199 44.50589267 -173 35 C-172.10796875 34.27039063 -171.2159375 33.54078125 -170.296875 32.7890625 C-122.43108931 -5.33519394 -58.75463512 -18.61046452 0 0 Z M-178.1953125 56.26171875 C-179.27562444 57.49463081 -180.33781626 58.74399859 -181.36987305 60.01757812 C-182.97131044 61.9651102 -184.63671757 63.83394128 -186.32421875 65.70703125 C-215.79472093 99.33119806 -226.67397358 143.23669076 -225 187 C-222.39765786 224.43413863 -206.95940148 260.11302962 -182 288 C-181.27683594 288.84433594 -180.55367187 289.68867188 -179.80859375 290.55859375 C-152.58633567 322.14919853 -111.06534723 340.56462418 -70.0625 344.6875 C-23.8484054 347.70967512 20.68534283 334.44797297 56 304 C56.79148437 303.3296875 57.58296875 302.659375 58.3984375 301.96875 C69.90371296 291.95153856 79.6174667 280.72012845 88 268 C88.3825293 267.42588379 88.76505859 266.85176758 89.15917969 266.26025391 C113.67571959 229.00472758 121.10034712 182.79944723 112.3125 139.375 C102.27056014 93.95880659 74.90270174 55.03856145 35.875 29.8125 C13.99794964 16.15973663 -9.55492974 8.45105204 -35 5 C-35.88171875 4.86851563 -36.7634375 4.73703125 -37.671875 4.6015625 C-88.82550906 -1.92493564 -142.6733277 19.66522551 -178.1953125 56.26171875 Z " fill="#010101" transform="translate(310,45)"/>
<path d="M0 0 C1.375 2.0625 1.375 2.0625 2 4 C2.66 4 3.32 4 4 4 C4.48828125 9.76171875 4.48828125 9.76171875 4 12 C0.43670328 16.12338697 -3.39220595 18.5088099 -8.26171875 20.7890625 C-9.69590044 21.48319257 -11.12997923 22.17753528 -12.56396484 22.87207031 C-13.66559967 23.39903503 -13.66559967 23.39903503 -14.78948975 23.93664551 C-18.32251036 25.63618675 -21.82596916 27.39414363 -25.33203125 29.1484375 C-26.73069653 29.84541102 -28.12946035 30.54218684 -29.52832031 31.23876953 C-40.6934166 36.80460827 -51.84951831 42.36953781 -62.85375977 48.24902344 C-70.90026995 52.52533898 -79.07072528 56.55606461 -87.23123169 60.60897827 C-95.74038555 64.83561652 -104.18456548 69.14226612 -112.48046875 73.77734375 C-115 75 -115 75 -118 75 C-118 68.73 -118 62.46 -118 56 C-107.25 50 -107.25 50 -105 50 C-104.67 49.34 -104.34 48.68 -104 48 C-100.18931329 45.92985456 -96.22830117 44.16730366 -92.29223633 42.34936523 C-84.79420181 38.87823013 -77.45111513 35.19116563 -70.16894531 31.28881836 C-63.51140936 27.72250089 -56.77049776 24.347635 -50 21 C-47.39433037 19.71134111 -44.79005472 18.41993894 -42.1875 17.125 C-41.52588867 16.79580566 -40.86427734 16.46661133 -40.18261719 16.12744141 C-35.13976981 13.60358743 -30.16036314 10.97103934 -25.1875 8.3125 C-5.22812457 -2.27892609 -5.22812457 -2.27892609 0 0 Z M-15 7 C-17.57075841 10.01447835 -18.52207066 12.35979771 -19.1875 16.25 C-19.34605469 17.14203125 -19.50460937 18.0340625 -19.66796875 18.953125 C-19.77753906 19.62859375 -19.88710938 20.3040625 -20 21 C-17.61435923 20.42415568 -15.33317216 19.77772405 -13 19 C-12.34 15.37 -11.68 11.74 -11 8 C-12.32 7.67 -13.64 7.34 -15 7 Z M-37.67578125 19.11328125 C-39.32238249 21.45932372 -39.71178637 23.3698116 -40.1875 26.1875 C-40.34605469 27.08855469 -40.50460937 27.98960937 -40.66796875 28.91796875 C-40.83232422 29.94857422 -40.83232422 29.94857422 -41 31 C-39.04495406 32.26048516 -39.04495406 32.26048516 -36.984375 31.4140625 C-34.21331494 29.43940947 -34.01008443 27.64336305 -33.25 24.375 C-33.00765625 23.37210938 -32.7653125 22.36921875 -32.515625 21.3359375 C-32.34546875 20.56507813 -32.1753125 19.79421875 -32 19 C-34.93733743 17.84866026 -34.93733743 17.84866026 -37.67578125 19.11328125 Z M-60 31 C-61.32204602 34.58841063 -61.08837423 38.19990832 -61 42 C-58.00462972 41.5029803 -58.00462972 41.5029803 -55 40 C-53.62328561 36.9380242 -53.62328561 36.9380242 -53.125 33.375 C-52.90070313 32.18648437 -52.67640625 30.99796875 -52.4453125 29.7734375 C-52.29835938 28.85820312 -52.15140625 27.94296875 -52 27 C-55.42477569 27 -57.38801638 28.94375757 -60 31 Z M-78 39 C-80.73918592 41.83867209 -81.53173659 44.41630619 -82.1875 48.25 C-82.34605469 49.14203125 -82.50460937 50.0340625 -82.66796875 50.953125 C-82.77753906 51.62859375 -82.88710938 52.3040625 -83 53 C-79.39007621 52.34414811 -79.39007621 52.34414811 -76 51 C-75.27196898 48.98702437 -75.27196898 48.98702437 -74.8125 46.625 C-74.63332031 45.83351563 -74.45414062 45.04203125 -74.26953125 44.2265625 C-73.81845521 41.83139388 -73.81845521 41.83139388 -75 39 C-75.99 39 -76.98 39 -78 39 Z M-99.61328125 50.20703125 C-101.28019415 52.3622792 -101.68527922 54.02186663 -102.1875 56.6875 C-102.42533203 57.89986328 -102.42533203 57.89986328 -102.66796875 59.13671875 C-102.77753906 59.75160156 -102.88710937 60.36648437 -103 61 C-101.515 61.99 -101.515 61.99 -100 63 C-99.34 62.67 -98.68 62.34 -98 62 C-98 61.01 -98 60.02 -98 59 C-97.34 59 -96.68 59 -96 59 C-95.67 55.7 -95.34 52.4 -95 49 C-97.93545882 48.7004655 -97.93545882 48.7004655 -99.61328125 50.20703125 Z " fill="#040404" transform="translate(355,149)"/>
<path d="M0 0 C0 4.62 0 9.24 0 14 C91.41 14.33 182.82 14.66 277 15 C276.67 13.68 276.34 12.36 276 11 C276.99 11.66 277.98 12.32 279 13 C278.67 14.32 278.34 15.64 278 17 C242.34667806 17.02286519 206.6933574 17.04049762 171.04002965 17.05106533 C166.83536155 17.05231611 162.63069347 17.05361042 158.42602539 17.05493164 C157.17036065 17.05532511 157.17036065 17.05532511 155.88932895 17.05572652 C142.31676324 17.06008346 128.74420176 17.06797114 115.17163856 17.0771528 C101.25553128 17.08648868 87.33942622 17.09205547 73.42331594 17.09408849 C64.82926978 17.09546386 56.23523552 17.09981517 47.64119302 17.10791647 C41.75611396 17.11318312 35.87104109 17.11480448 29.98595984 17.11350138 C26.58540532 17.11285787 23.18487168 17.11387694 19.78432083 17.11920547 C16.10624262 17.12413514 12.42821659 17.12300098 8.75013733 17.12025452 C7.12030831 17.12462378 7.12030831 17.12462378 5.45755345 17.12908131 C4.48021164 17.12709026 3.50286983 17.12509921 2.4959116 17.12304783 C1.22062087 17.12361741 1.22062087 17.12361741 -0.08043331 17.1241985 C-2 17 -2 17 -3 16 C-3.07313567 13.46950598 -3.09247527 10.96695163 -3.0625 8.4375 C-3.05798828 7.72658203 -3.05347656 7.01566406 -3.04882812 6.28320312 C-3.03700864 4.52209987 -3.01907263 2.76103964 -3 1 C-1 0 -1 0 0 0 Z " fill="#040404" transform="translate(121,274)"/>
<path d="M0 0 C36.3 0 72.6 0 110 0 C111.11445498 2.22890995 111.16480286 3.53055106 111.1875 6 C111.20167969 6.70125 111.21585937 7.4025 111.23046875 8.125 C111 10 111 10 109 12 C107.27624791 8.55249582 108.52049655 4.7294713 109 1 C108.02047867 1.07105453 107.04095734 1.14210907 106.03175354 1.21531677 C94.22965155 2.01909811 82.4780021 2.13077832 70.65234375 2.09765625 C68.65881893 2.09578566 66.66529364 2.09436479 64.67176819 2.09336853 C59.48520586 2.08959378 54.29867261 2.07980806 49.11212158 2.06866455 C43.79545484 2.05834053 38.4787833 2.05384763 33.16210938 2.04882812 C22.77472491 2.03818001 12.38736945 2.0206256 2 2 C2 8.93 2 15.86 2 23 C3.32 22.34 4.64 21.68 6 21 C6 21.66 6 22.32 6 23 C7.11375 22.814375 8.2275 22.62875 9.375 22.4375 C13 22 13 22 15 23 C14.99666908 24.53617981 14.99666908 24.53617981 14.99327087 26.10339355 C14.97278907 35.86743517 14.95790938 45.63147229 14.94818783 55.3955307 C14.94302152 60.41245943 14.93604115 65.42937049 14.92456055 70.44628906 C14.91153508 76.24544375 14.90523951 82.04458209 14.90234375 87.84375 C14.9013203 88.78175446 14.90029686 89.71975891 14.8992424 90.68618774 C14.89204047 102.66643306 15.00572219 114.60344887 15.91111755 126.55700684 C16.07641602 129.11914062 16.07641602 129.11914062 16 133 C14.515 133.99 14.515 133.99 13 135 C12.01 134.01 11.02 133.02 10 132 C10.66 132 11.32 132 12 132 C12 97.02 12 62.04 12 26 C9.06753341 24.5337667 6.32233257 25.02912611 3.09375 25.16015625 C1 25 1 25 -1 23 C-1.17316528 20.02684016 -1.23190475 17.15794428 -1.1875 14.1875 C-1.18685547 13.37990234 -1.18621094 12.57230469 -1.18554688 11.74023438 C-1.15486938 7.57832137 -0.82945813 4.14729063 0 0 Z " fill="#030303" transform="translate(119,134)"/>
<path d="M0 0 C2.31 0.66 4.62 1.32 7 2 C6.67 4.64 6.34 7.28 6 10 C6.66 10.33 7.32 10.66 8 11 C6.68 11.33 5.36 11.66 4 12 C4.33 9.03 4.66 6.06 5 3 C-10.84 3 -26.68 3 -43 3 C-43 5.64 -43 8.28 -43 11 C-27.82 11 -12.64 11 3 11 C-0.44255434 12.72127717 -1.52870665 13.25223232 -5.0625 13.38232422 C-6.24392578 13.4314949 -6.24392578 13.4314949 -7.44921875 13.48165894 C-8.29097656 13.50575836 -9.13273437 13.52985779 -10 13.5546875 C-11.30904297 13.59796677 -11.30904297 13.59796677 -12.64453125 13.64212036 C-14.48682952 13.69909505 -16.3292944 13.75088634 -18.171875 13.79785156 C-20.99074911 13.87474764 -23.80725607 13.9835589 -26.625 14.09375 C-28.41661137 14.14519235 -30.2082785 14.1947355 -32 14.2421875 C-32.84175781 14.27843231 -33.68351562 14.31467712 -34.55078125 14.35202026 C-40.38648111 14.45476881 -40.38648111 14.45476881 -43.53808594 12.11865234 C-45.92452055 8.66015542 -45.27382837 6.10742554 -45 2 C-40.32024424 0.80235974 -35.80736156 0.88925122 -31.015625 0.9375 C-29.73132599 0.94317993 -29.73132599 0.94317993 -28.42108154 0.94897461 C-25.69733568 0.96115555 -22.97369747 0.97979952 -20.25 1 C-16.65104481 1.02648609 -13.05214035 1.04651156 -9.453125 1.0625 C-8.62089417 1.07079834 -7.78866333 1.07909668 -6.93121338 1.08764648 C-4.95394486 1.09618873 -2.9765656 1.05340626 -1 1 C-0.67 0.67 -0.34 0.34 0 0 Z " fill="#050505" transform="translate(356,248)"/>
<path d="M0 0 C0.10020937 3.50732784 -0.29699318 6.57284174 -1 10 C-1.2981424 13.7763932 -1.2981424 13.7763932 0 16 C-2.18658327 19.2798749 -3.4738014 19.99379716 -6.9375 21.6875 C-8.25041016 22.34298828 -8.25041016 22.34298828 -9.58984375 23.01171875 C-12 24 -12 24 -15 24 C-15 21.36 -15 18.72 -15 16 C-14.01 15.67 -13.02 15.34 -12 15 C-11.87625 13.865625 -11.7525 12.73125 -11.625 11.5625 C-11.41875 10.386875 -11.2125 9.21125 -11 8 C-10.34 7.67 -9.68 7.34 -9 7 C-8.938125 6.38125 -8.87625 5.7625 -8.8125 5.125 C-8 3 -8 3 -4.5 1.25 C-1 0 -1 0 0 0 Z " fill="#101010" transform="translate(252,200)"/>
<path d="M0 0 C-0.99 0.33 -1.98 0.66 -3 1 C-3 4.96 -3 8.92 -3 13 C30.165 13.495 30.165 13.495 64 14 C61.2587009 16.7412991 59.70824632 16.26481678 55.86962891 16.29052734 C54.58134186 16.30328705 53.29305481 16.31604675 51.96572876 16.32919312 C50.55267486 16.33225064 49.13961896 16.33447847 47.7265625 16.3359375 C46.28168606 16.34236245 44.83681093 16.34909058 43.39193726 16.35610962 C40.36054468 16.36809598 37.32926617 16.37178913 34.29785156 16.37060547 C30.41484705 16.37040235 26.532575 16.3976904 22.64974403 16.43214989 C19.66428271 16.45439889 16.67899811 16.45844362 13.69346237 16.45738602 C12.26212416 16.45974555 10.83078133 16.468589 9.39952469 16.48405075 C7.39616576 16.50366371 5.39259246 16.49536226 3.38916016 16.48583984 C2.24935699 16.48868988 1.10955383 16.49153992 -0.06478882 16.49447632 C-3.63240653 15.8934625 -4.85207957 14.86492777 -7 12 C-6.75 9.6875 -6.75 9.6875 -6 7 C-5.96175377 4.66698014 -5.95425716 2.33288492 -6 0 C-3.50907189 -1.24546405 -2.58919267 -0.7767578 0 0 Z " fill="#0B0B0B" transform="translate(306,269)"/>
<path d="M0 0 C-0.33 2.97 -0.66 5.94 -1 9 C-1.66 9 -2.32 9 -3 9 C-3.185625 10.093125 -3.37125 11.18625 -3.5625 12.3125 C-5.21207411 16.54401618 -5.21207411 16.54401618 -8.5 18 C-12 19 -12 19 -14 18 C-13.01 12.72 -12.02 7.44 -11 2 C-10.34 2 -9.68 2 -9 2 C-9 1.34 -9 0.68 -9 0 C-4.5 -2.25 -4.5 -2.25 0 0 Z " fill="#121212" transform="translate(316,170)"/>
<path d="M0 0 C-0.11493757 1.89646998 -0.24239642 3.79218332 -0.375 5.6875 C-0.44460938 6.74324219 -0.51421875 7.79898438 -0.5859375 8.88671875 C-0.99318434 11.94875392 -1.61007774 14.24931469 -3 17 C-5.5 18.6875 -5.5 18.6875 -8 20 C-8.66 20.66 -9.32 21.32 -10 22 C-10.99 21.34 -11.98 20.68 -13 20 C-12.855625 19.154375 -12.71125 18.30875 -12.5625 17.4375 C-11.9941203 13.96406851 -11.48797607 10.48554338 -11 7 C-10.34 7 -9.68 7 -9 7 C-9.33 6.01 -9.66 5.02 -10 4 C-7.25346796 1.25346796 -3.91404908 0 0 0 Z " fill="#131313" transform="translate(335,158)"/>
<path d="M0 0 C1.4375 2.25 1.4375 2.25 2 5 C1.125 8.3125 1.125 8.3125 0 11 C-0.66 11 -1.32 11 -2 11 C-2.33 11.66 -2.66 12.32 -3 13 C-5.9347497 14.34839851 -8.85047161 15.3001048 -12 16 C-13.1087792 12.67366241 -12.86099192 11.41479194 -12.125 8.0625 C-11.94195312 7.20785156 -11.75890625 6.35320312 -11.5703125 5.47265625 C-11.07107627 3.30815944 -10.54930344 1.15227076 -10 -1 C-5.99714942 -2.14367159 -3.62493615 -2.15536744 0 0 Z " fill="#131313" transform="translate(356,152)"/>
<path d="M0 0 C1.60681641 -0.02398109 1.60681641 -0.02398109 3.24609375 -0.04844666 C4.40238281 -0.05380936 5.55867188 -0.05917206 6.75 -0.06469727 C7.93722656 -0.07372574 9.12445313 -0.08275421 10.34765625 -0.09205627 C12.85934928 -0.10657205 15.37108024 -0.11544879 17.8828125 -0.11914062 C21.73501765 -0.13105717 25.5856321 -0.18025066 29.4375 -0.23071289 C31.87499216 -0.24017427 34.31249418 -0.24741067 36.75 -0.25219727 C37.90628906 -0.27172958 39.06257813 -0.2912619 40.25390625 -0.31138611 C41.32511719 -0.30530838 42.39632812 -0.29923065 43.5 -0.29296875 C44.44359375 -0.2980394 45.3871875 -0.30311005 46.359375 -0.30833435 C48.75 0.30639648 48.75 0.30639648 50.578125 2.84385681 C50.96484375 3.6564949 51.3515625 4.469133 51.75 5.30639648 C50.76 5.30639648 49.77 5.30639648 48.75 5.30639648 C48.255 4.31639648 48.255 4.31639648 47.75 3.30639648 C29.6 3.30639648 11.45 3.30639648 -7.25 3.30639648 C-7.91 4.95639648 -8.57 6.60639648 -9.25 8.30639648 C-10.05429553 9.90467606 -10.88732664 11.48885587 -11.75 13.05639648 C-12.1728125 13.83499023 -12.595625 14.61358398 -13.03125 15.41577148 C-14.25 17.30639648 -14.25 17.30639648 -16.25 18.30639648 C-15.67658137 14.05225019 -14.19573928 11.20771904 -11.875 7.61889648 C-11.26914062 6.6662793 -10.66328125 5.71366211 -10.0390625 4.73217773 C-7.06297933 0.69692086 -4.80052905 0.05412994 0 0 Z " fill="#090909" transform="translate(316.25,208.693603515625)"/>
<path d="M0 0 C0 0.66 0 1.32 0 2 C-0.66 2 -1.32 2 -2 2 C-1.67 2.99 -1.34 3.98 -1 5 C-1.309375 5.763125 -1.61875 6.52625 -1.9375 7.3125 C-3.22068057 10.00443907 -3.22068057 10.00443907 -2.8125 13.125 C-2.874375 14.07375 -2.93625 15.0225 -3 16 C-5.79381746 18.25057517 -8.48824193 19.34967443 -12 20 C-12.93423645 16.98968256 -13.04449911 16.13349732 -12 13 C-12.185625 12.360625 -12.37125 11.72125 -12.5625 11.0625 C-13 9 -13 9 -12.3125 7 C-9.29987774 2.4093375 -5.68291263 -1.89430421 0 0 Z " fill="#131313" transform="translate(274,190)"/>
<path d="M0 0 C0.66 0.33 1.32 0.66 2 1 C1.71653722 2.91789713 1.4228972 4.83429183 1.125 6.75 C0.96257812 7.81734375 0.80015625 8.8846875 0.6328125 9.984375 C-0.22583618 14.07620696 -0.98607996 16.25290103 -4.375 18.75 C-7 20 -7 20 -11 20 C-11 18.68 -11 17.36 -11 16 C-10.34 16 -9.68 16 -9 16 C-9 12.04 -9 8.08 -9 4 C-2.1640625 0.77734375 -2.1640625 0.77734375 0 0 Z " fill="#141414" transform="translate(292,179)"/>
<path d="M0 0 C0.85078125 0.04833984 1.7015625 0.09667969 2.578125 0.14648438 C3.46757812 0.20255859 4.35703125 0.25863281 5.2734375 0.31640625 C6.170625 0.36861328 7.0678125 0.42082031 7.9921875 0.47460938 C10.21127762 0.60444975 12.42993621 0.73941964 14.6484375 0.87890625 C14.6484375 1.20890625 14.6484375 1.53890625 14.6484375 1.87890625 C8.3784375 1.87890625 2.1084375 1.87890625 -4.3515625 1.87890625 C-4.3515625 2.53890625 -4.3515625 3.19890625 -4.3515625 3.87890625 C-0.85948069 5.04293352 2.03991522 5.09009133 5.72265625 5.1953125 C6.4064888 5.2160936 7.09032135 5.23687469 7.7948761 5.25828552 C9.9751296 5.32356779 12.15550155 5.38256642 14.3359375 5.44140625 C15.81576736 5.48461178 17.29558533 5.52822672 18.77539062 5.57226562 C22.39961372 5.67922708 26.02396939 5.78055448 29.6484375 5.87890625 C29.6484375 6.53890625 29.6484375 7.19890625 29.6484375 7.87890625 C27.46280759 8.58143015 26.06884041 8.99032144 23.81982422 8.39428711 C21.30029667 7.79627467 19.23747141 7.89117487 16.65625 8.0703125 C15.70363281 8.12767578 14.75101563 8.18503906 13.76953125 8.24414062 C11.77965325 8.37515606 9.79005783 8.51054004 7.80078125 8.65039062 C2.60094507 8.95564417 -1.4763172 9.05210882 -6.3515625 6.87890625 C-6.3515625 4.89890625 -6.3515625 2.91890625 -6.3515625 0.87890625 C-3.94721244 -0.32326878 -2.66774881 -0.16006493 0 0 Z " fill="#08070B" transform="translate(152.3515625,220.12109375)"/>
<path d="M0 0 C0.99 0.66 1.98 1.32 3 2 C2.01 2.66 1.02 3.32 0 4 C-0.43636428 5.97255135 -0.43636428 5.97255135 -0.34057617 8.26611328 C-0.34034958 9.14687531 -0.34012299 10.02763733 -0.33988953 10.93508911 C-0.32440567 11.88721283 -0.30892181 12.83933655 -0.29296875 13.8203125 C-0.28872391 14.79410858 -0.28447906 15.76790466 -0.28010559 16.77120972 C-0.26327786 19.88941805 -0.22561811 23.00698617 -0.1875 26.125 C-0.17245846 28.23566777 -0.15876914 30.34634564 -0.14648438 32.45703125 C-0.11336109 37.63824023 -0.06312151 42.81907439 0 48 C-1.485 48.495 -1.485 48.495 -3 49 C-3.07606171 42.664629 -3.12860457 36.32937576 -3.16479492 29.99365234 C-3.17988182 27.83833414 -3.20035389 25.68304664 -3.22631836 23.52783203 C-3.26270544 20.42993596 -3.27972739 17.33244577 -3.29296875 14.234375 C-3.30845261 13.27070007 -3.32393646 12.30702515 -3.33988953 11.31414795 C-3.34011612 10.41351624 -3.34034271 9.51288452 -3.34057617 8.58496094 C-3.34723801 7.79442322 -3.35389984 7.0038855 -3.36076355 6.18939209 C-2.91213462 3.46676497 -1.78181445 2.06465352 0 0 Z " fill="#070707" transform="translate(213,218)"/>
<path d="M0 0 C0.59167969 0.08378906 1.18335938 0.16757813 1.79296875 0.25390625 C6.09939457 0.80889424 9.75552644 1.23226652 14 0 C13.67 0.66 13.34 1.32 13 2 C12.34 2 11.68 2 11 2 C11.42152344 2.47566406 11.84304687 2.95132813 12.27734375 3.44140625 C17.16122593 9.68128395 17.62473158 14.71739358 17.50390625 22.546875 C18.12556918 26.87404061 19.69554504 28.26455861 23 31 C19.7551212 30.63945791 17.24324217 29.32668402 14.953125 26.98828125 C13.0781178 23.07689327 13.97940005 18.50496297 14.15234375 14.265625 C13.99955853 10.99053677 13.89182988 9.94075784 11.5625 7.75 C10.716875 7.1725 9.87125 6.595 9 6 C8.67 5.34 8.34 4.68 8 4 C5.67843403 3.59270772 3.3431213 3.25561323 1 3 C0.67 2.01 0.34 1.02 0 0 Z " fill="#050505" transform="translate(215,215)"/>
<path d="M0 0 C2.79705825 1.39852912 2.90914993 3.13651858 4 6 C4.99 7.485 4.99 7.485 6 9 C6.31884766 11.8190918 6.31884766 11.8190918 6.4140625 15.19921875 C6.45273437 16.40771484 6.49140625 17.61621094 6.53125 18.86132812 C6.5621875 20.12396484 6.593125 21.38660156 6.625 22.6875 C6.66367187 23.96173828 6.70234375 25.23597656 6.7421875 26.54882812 C6.83657686 29.69907292 6.9221583 32.84930991 7 36 C3.12352961 32.66413233 3.12352961 32.66413233 2.57763672 29.72924805 C2.62815186 28.50782104 2.62815186 28.50782104 2.6796875 27.26171875 C2.70160156 26.35873047 2.72351563 25.45574219 2.74609375 24.52539062 C2.80990234 23.12063477 2.80990234 23.12063477 2.875 21.6875 C3.1141742 15.33166711 3.14742453 10.0344294 1 4 C0.34 4 -0.32 4 -1 4 C-0.67 2.68 -0.34 1.36 0 0 Z " fill="#020202" transform="translate(278,233)"/>
<path d="M0 0 C0.99 0 1.98 0 3 0 C4.25433458 3.76300374 4.10695422 7.27210909 4.0625 11.1875 C4.05798828 11.93708984 4.05347656 12.68667969 4.04882812 13.45898438 C4.03706354 15.30602383 4.01912865 17.15302213 4 19 C4.99 19.33 5.98 19.66 7 20 C7 20.66 7 21.32 7 22 C7.66 22 8.32 22 9 22 C12.11450382 26.15267176 12.11450382 26.15267176 11.6875 29.3125 C11.460625 29.869375 11.23375 30.42625 11 31 C8 25.25 8 25.25 8 23 C7.4225 23.2475 6.845 23.495 6.25 23.75 C4 24 4 24 1.875 22.65625 C-1.01571681 18.56106786 -0.4276417 14.62831434 -0.25 9.75 C-0.23195312 8.81414062 -0.21390625 7.87828125 -0.1953125 6.9140625 C-0.14825673 4.60832985 -0.08253713 2.30469055 0 0 Z " fill="#040404" transform="translate(229,252)"/>
<path d="M0 0 C0.99 0 1.98 0 3 0 C3 9.57 3 19.14 3 29 C2.01 29 1.02 29 0 29 C0 19.43 0 9.86 0 0 Z " fill="#020202" transform="translate(141,171)"/>
<path d="M0 0 C0.66 0.33 1.32 0.66 2 1 C1.93091287 5.18148877 1.84284758 9.36202754 1.73754883 13.54272461 C1.70439443 14.96351202 1.67633308 16.38442813 1.65356445 17.80541992 C1.61984153 19.8539082 1.56752255 21.9012272 1.51171875 23.94921875 C1.48553467 25.17987061 1.45935059 26.41052246 1.43237305 27.6784668 C0.9325201 31.51838741 -0.23921411 34.23921411 -3 37 C-5.18639453 37.07258946 -7.37500389 37.08373783 -9.5625 37.0625 C-11.35880859 37.04896484 -11.35880859 37.04896484 -13.19140625 37.03515625 C-14.11824219 37.02355469 -15.04507813 37.01195312 -16 37 C-16 36.67 -16 36.34 -16 36 C-9.565 35.505 -9.565 35.505 -3 35 C-0.61798035 23.40750438 -0.36894136 11.8001246 0 0 Z " fill="#010101" transform="translate(197,170)"/>
<path d="M0 0 C4.3322929 -0.4247346 6.34962488 -0.47048413 9.9375 2.125 C12 5 12 5 12.625 8 C11.78253791 12.04381805 10.26600019 13.53235541 7 16 C4.1875 16.3125 4.1875 16.3125 2 16 C5 14 5 14 7.1875 12.8125 C9.37092554 11.00102607 9.37092554 11.00102607 9.4375 7.4375 C9.293125 6.303125 9.14875 5.16875 9 4 C5.5647952 1.70986347 4.014669 1.82157027 0 2 C0 2.66 0 3.32 0 4 C-0.66 4 -1.32 4 -2 4 C-1.67 6.97 -1.34 9.94 -1 13 C-1.99 12.34 -2.98 11.68 -4 11 C-3.67 8.36 -3.34 5.72 -3 3 C-2.34 3 -1.68 3 -1 3 C-0.67 2.01 -0.34 1.02 0 0 Z " fill="#020202" transform="translate(295,245)"/>
<path d="M0 0 C1.65 0.33 3.3 0.66 5 1 C6.20656292 4.41859494 7.10045004 7.11603962 6.6875 10.75 C4.35232337 13.86356884 1.81728916 14.52612761 -1.80859375 15.71484375 C-4 16 -4 16 -7 14 C-7 13.01 -7 12.02 -7 11 C-7.66 11 -8.32 11 -9 11 C-9.33 8.69 -9.66 6.38 -10 4 C-9.34 3.67 -8.68 3.34 -8 3 C-7.731875 4.093125 -7.46375 5.18625 -7.1875 6.3125 C-5.99722483 10.39136089 -5.99722483 10.39136089 -3 13 C-0.67511119 12.7181953 0.90892835 12.04553582 3 11 C4.02087138 8.21406972 4.02087138 8.21406972 4 5 C2.18911155 2.13034253 2.18911155 2.13034253 0 0 Z " fill="#030303" transform="translate(377,246)"/>
<path d="M0 0 C2.66666667 1.33333333 5.33333333 2.66666667 8 4 C10.06198379 4.04614229 12.12534951 4.03796825 14.1875 4 C18.9322522 3.95791794 23.34108451 4.13322502 28 5 C28 5.33 28 5.66 28 6 C24.08358289 6.11618764 20.16760899 6.18724654 16.25 6.25 C14.58324219 6.30027344 14.58324219 6.30027344 12.8828125 6.3515625 C11.81289062 6.36445313 10.74296875 6.37734375 9.640625 6.390625 C8.16384277 6.4220459 8.16384277 6.4220459 6.65722656 6.45410156 C3.2706985 5.87536744 2.09184848 4.66719981 0 2 C0 1.34 0 0.68 0 0 Z " fill="#060606" transform="translate(143,202)"/>
<path d="M0 0 C-3.22791555 2.1519437 -4.28400809 2.20086443 -8 2 C-10.04014021 7.64038763 -10.18727591 12.11159122 -9 18 C-8.67 18.66 -8.34 19.32 -8 20 C-9.9375 19.1875 -9.9375 19.1875 -12 18 C-13.00496852 14.98509443 -13.10335303 12.95818308 -13.0625 9.8125 C-13.05347656 8.91144531 -13.04445312 8.01039063 -13.03515625 7.08203125 C-13.02355469 6.39496094 -13.01195312 5.70789063 -13 5 C-12.01 5 -11.02 5 -10 5 C-9.9175 4.38125 -9.835 3.7625 -9.75 3.125 C-9 1 -9 1 -7.25 -0.3125 C-4.48679971 -1.1568112 -2.75194864 -0.76443018 0 0 Z " fill="#060606" transform="translate(223,195)"/>
<path d="M0 0 C0.33 0 0.66 0 1 0 C1.22523024 3.62415933 1.42731308 7.24924219 1.625 10.875 C1.68945312 11.90753906 1.75390625 12.94007813 1.8203125 14.00390625 C1.871875 14.99003906 1.9234375 15.97617187 1.9765625 16.9921875 C2.02893066 17.90339355 2.08129883 18.81459961 2.13525391 19.75341797 C2 22 2 22 0 24 C-0.25082077 26.32579259 -0.40420836 28.66268398 -0.5 31 C-0.77777778 37.77777778 -0.77777778 37.77777778 -3 40 C-3.05425226 37.60385874 -3.09379027 35.20896147 -3.125 32.8125 C-3.14175781 32.13896484 -3.15851563 31.46542969 -3.17578125 30.77148438 C-3.20508119 27.76824066 -3.14301511 25.34891234 -1.99609375 22.55078125 C-0.5427653 18.82912056 -0.82620608 15.32762033 -0.9375 11.375 C-1.12025692 3.36077075 -1.12025692 3.36077075 0 0 Z " fill="#020202" transform="translate(390,244)"/>
<path d="M0 0 C-0.99 0.33 -1.98 0.66 -3 1 C-3 4.96 -3 8.92 -3 13 C-3.66 12.67 -4.32 12.34 -5 12 C-6.17169312 8.01624339 -6.08089427 4.12560776 -6 0 C-3.50907189 -1.24546405 -2.58919267 -0.7767578 0 0 Z " fill="#050505" transform="translate(306,269)"/>
<path d="M0 0 C1.65 0 3.3 0 5 0 C5.12375 1.794375 5.12375 1.794375 5.25 3.625 C5.7767929 8.04377027 7.29865987 10.51439983 10 14 C9.67 14.66 9.34 15.32 9 16 C6.33434931 13.63053272 4.92561586 11.19636154 3.375 8 C2.73691406 6.700625 2.73691406 6.700625 2.0859375 5.375 C1 3 1 3 0 0 Z " fill="#040404" transform="translate(367,215)"/>
<path d="M0 0 C0.33 0 0.66 0 1 0 C1.02687279 1.81242052 1.04633715 3.62495233 1.0625 5.4375 C1.07410156 6.44683594 1.08570313 7.45617187 1.09765625 8.49609375 C1 11 1 11 0 12 C-2.86267567 12.07325168 -5.700719 12.09238205 -8.5625 12.0625 C-9.36880859 12.05798828 -10.17511719 12.05347656 -11.00585938 12.04882812 C-13.00393756 12.03700518 -15.00197783 12.01906914 -17 12 C-13.96094534 10.22779501 -11.93334334 9.81071576 -8.4375 10 C-4.81077903 10.19570838 -4.20735406 10.13823604 -1 8 C-0.42251197 6.03638136 -0.42251197 6.03638136 -0.3125 3.875 C-0.209375 2.59625 -0.10625 1.3175 0 0 Z " fill="#040404" transform="translate(228,147)"/>
<path d="M0 0 C3.18019683 2.9238411 5.25351309 5.83401169 7.3125 9.625 C7.84488281 10.58664063 8.37726563 11.54828125 8.92578125 12.5390625 C9.28027344 13.35117188 9.63476562 14.16328125 10 15 C9.67 15.66 9.34 16.32 9 17 C8.34 15.35 7.68 13.7 7 12 C6.34 12 5.68 12 5 12 C3.7109375 10.390625 3.7109375 10.390625 2.375 8.25 C1.92898438 7.55390625 1.48296875 6.8578125 1.0234375 6.140625 C0 4 0 4 0 0 Z " fill="#040404" transform="translate(372,209)"/>
<path d="M0 0 C0.99 0.33 1.98 0.66 3 1 C2.34 1 1.68 1 1 1 C0.773125 1.639375 0.54625 2.27875 0.3125 2.9375 C-4.54545455 14.27272727 -4.54545455 14.27272727 -8 16 C-7.43555175 11.65136348 -5.84572036 8.82172345 -3.4375 5.1875 C-2.79683594 4.21167969 -2.15617187 3.23585937 -1.49609375 2.23046875 C-0.75552734 1.12638672 -0.75552734 1.12638672 0 0 Z " fill="#020202" transform="translate(308,211)"/>
<path d="M0 0 C0.66 0 1.32 0 2 0 C0.50829734 4.9723422 -1.60457417 9.41845739 -4 14 C-4.99 13.67 -5.98 13.34 -7 13 C-6.66226562 12.39671875 -6.32453125 11.7934375 -5.9765625 11.171875 C-5.53054688 10.37265625 -5.08453125 9.5734375 -4.625 8.75 C-4.18414062 7.96109375 -3.74328125 7.1721875 -3.2890625 6.359375 C-2.14252177 4.26085803 -1.05350448 2.1463923 0 0 Z " fill="#030303" transform="translate(299,212)"/>
<path d="M0 0 C3.85695125 0.22039721 5.01616402 1.01546124 7.875 3.75 C10 7 10 7 9.8125 9.875 C9.544375 10.57625 9.27625 11.2775 9 12 C8.7525 11.443125 8.505 10.88625 8.25 10.3125 C6.12086052 6.37359196 4.32917913 3.44305971 0 2 C0 1.34 0 0.68 0 0 Z " fill="#060606" transform="translate(224,195)"/>
<path d="M0 0 C1.32 0.66 2.64 1.32 4 2 C4 6.71906188 2.71245796 8.27037031 0 12 C-1 9 -1 9 0 6.5625 C1.08904289 3.7718276 1.01714949 2.74630362 0 0 Z " fill="#050505" transform="translate(391,231)"/>
<path d="M0 0 C1.2065625 0.0309375 1.2065625 0.0309375 2.4375 0.0625 C3.0975 1.7125 3.7575 3.3625 4.4375 5.0625 C3.7775 5.7225 3.1175 6.3825 2.4375 7.0625 C2.004375 6.44375 1.57125 5.825 1.125 5.1875 C-0.55990483 2.8427755 -0.55990483 2.8427755 -3.5625 1.0625 C-2.5625 0.0625 -2.5625 0.0625 0 0 Z " fill="#060606" transform="translate(193.5625,162.9375)"/>
<path d="M0 0 C0.33 0 0.66 0 1 0 C1 5.28 1 10.56 1 16 C0.67 16 0.34 16 0 16 C0 10.72 0 5.44 0 0 Z " fill="#000000" transform="translate(235,207)"/>
<path d="M0 0 C2 1 2 1 2 1 Z " fill="#000000" transform="translate(298,258)"/>
<path d="" fill="#000000" transform="translate(0,0)"/>
</svg>
